<svg width="820" height="151" viewBox="0 0 820 151" fill="none" xmlns="http://www.w3.org/2000/svg">
<g clip-path="url(#clip0_472_191)">
<path d="M47.89 33.65C48.53 32.5 48.9 31.19 48.9 29.78C48.9 25.39 45.34 21.83 40.95 21.83C36.56 21.83 33 25.39 33 29.78C33 34.17 36.56 37.73 40.95 37.73C42.25 37.73 43.48 37.41 44.56 36.86C52.87 45.06 59 57.16 59 73.2V87.8L58.6 87.3C50.34 74.92 37.06 64.96 21.7 58.54C21.83 57.97 21.9 57.39 21.9 56.78C21.9 52.39 18.34 48.83 13.95 48.83C9.56 48.83 6 52.39 6 56.78C6 61.17 9.56 64.73 13.95 64.73C15.95 64.73 17.77 63.99 19.17 62.77C34.09 68.81 47.02 79.06 54.8 90.19C57.9 94.99 59 98.59 58.8 104.69V119.09L58.3 118.19C50.76 104.65 37.2 92.93 15.89 88.46C15.72 84.22 12.24 80.83 7.95 80.83C3.66 80.83 0 84.39 0 88.78C0 93.17 3.56 96.73 7.95 96.73C10.86 96.73 13.39 95.17 14.78 92.84C34.02 96.02 47.06 107.04 54.3 119.59C57.5 125.39 58.4 131.09 58.4 137.49V150.69H63.3L63.4 72.19C63.4 58.42 58.32 44.55 48.16 33.46C48.07 33.52 47.98 33.59 47.89 33.65Z" fill="#16201B"/>
<path d="M72.95 0C68.56 0 65 3.56 65 7.95C65 11.49 67.31 14.48 70.5 15.51L70.6 150.69H75V15.63C78.4 14.73 80.9 11.64 80.9 7.96C80.9 3.57 77.34 0.01 72.95 0.01V0Z" fill="#16201B"/>
<path d="M137.95 80.8299C133.68 80.8299 130.21 84.1899 130.02 88.4199C113.62 91.5899 97.75 100.18 88 117.1L87.3 118.8V104.5C87.3 101.1 87.8 97.6999 89.2 94.5999C93.53 85.1599 106.38 72.1499 126.96 62.9699C128.32 64.0699 130.06 64.7299 131.95 64.7299C136.34 64.7299 139.9 61.1699 139.9 56.7799C139.9 52.3899 136.34 48.8299 131.95 48.8299C127.56 48.8299 124 52.3899 124 56.7799C124 57.3599 124.07 57.9199 124.18 58.4599C111.76 63.6399 98 72.5899 88 86.0899L87.3 87.4899V74.1899C87.3 63.0199 90.49 49.6599 101.82 37.0799C102.78 37.4899 103.84 37.7199 104.95 37.7199C109.34 37.7199 112.9 34.1599 112.9 29.7699C112.9 25.3799 109.34 21.8199 104.95 21.8199C100.56 21.8199 97 25.3799 97 29.7699C97 31.2199 97.39 32.5699 98.07 33.7399C89.69 42.4099 82.4 54.5799 82.4 73.2799V150.68H87.4V136.48C87.7 132.38 88.1 127.58 91.1 121.78C97.55 109.46 110.42 97.6499 131.25 93.0299C132.66 95.2499 135.13 96.7199 137.95 96.7199C142.34 96.7199 145.9 93.1599 145.9 88.7699C145.9 84.3799 142.34 80.8199 137.95 80.8199V80.8299Z" fill="#16201B"/>
</g>
<path d="M203.664 86.248V78.616H219.792C223.824 78.616 226.824 77.752 228.792 76.024C230.808 74.296 231.816 71.704 231.816 68.248V68.176C231.816 64.72 230.808 62.128 228.792 60.4C226.776 58.672 223.776 57.808 219.792 57.808H203.088L205.896 55V100H197.76V50.176H219.792C226.368 50.176 231.36 51.736 234.768 54.856C238.176 57.928 239.88 62.368 239.88 68.176V68.248C239.88 74.056 238.176 78.52 234.768 81.64C231.36 84.712 226.368 86.248 219.792 86.248H203.664Z" fill="#16201B"/>
<path d="M314.614 100H306.046L300.934 88.336H274.798L269.686 100H261.118L283.582 50.176H292.15L314.614 100ZM287.902 58.384L277.606 81.28H298.126L287.902 58.384Z" fill="#16201B"/>
<path d="M341.406 100V50.176H348.894L380.214 87.832L379.35 87.976V50.176H387.27V100H379.782L348.534 62.344L349.326 62.272V100H341.406Z" fill="#16201B"/>
<path d="M439.893 50.176C445.125 50.176 449.613 51.208 453.357 53.272C457.149 55.336 460.029 58.24 461.997 61.984C464.013 65.728 465.021 70.096 465.021 75.088V75.16C465.021 80.104 464.013 84.448 461.997 88.192C460.029 91.936 457.149 94.84 453.357 96.904C449.613 98.968 445.125 100 439.893 100H418.221V50.176H439.893ZM439.893 92.368C443.445 92.368 446.493 91.648 449.037 90.208C451.581 88.768 453.525 86.752 454.869 84.16C456.261 81.568 456.957 78.568 456.957 75.16V75.088C456.957 71.632 456.261 68.608 454.869 66.016C453.525 63.424 451.581 61.408 449.037 59.968C446.493 58.528 443.445 57.808 439.893 57.808H426.357V92.368H439.893Z" fill="#16201B"/>
<path d="M518.697 49.384C523.929 49.384 528.465 50.464 532.305 52.624C536.193 54.736 539.169 57.736 541.233 61.624C543.345 65.512 544.401 69.976 544.401 75.016V75.088C544.401 80.176 543.345 84.664 541.233 88.552C539.169 92.44 536.193 95.464 532.305 97.624C528.465 99.736 523.929 100.792 518.697 100.792H515.961C510.777 100.792 506.241 99.736 502.353 97.624C498.465 95.464 495.465 92.44 493.353 88.552C491.289 84.664 490.257 80.176 490.257 75.088V75.016C490.257 69.976 491.289 65.512 493.353 61.624C495.465 57.736 498.465 54.736 502.353 52.624C506.241 50.464 510.777 49.384 515.961 49.384H518.697ZM518.697 93.304C522.297 93.304 525.417 92.56 528.057 91.072C530.697 89.536 532.737 87.4 534.177 84.664C535.617 81.88 536.337 78.688 536.337 75.088V75.016C536.337 71.416 535.617 68.248 534.177 65.512C532.737 62.776 530.697 60.664 528.057 59.176C525.417 57.64 522.297 56.872 518.697 56.872H515.961C512.409 56.872 509.289 57.64 506.601 59.176C503.961 60.664 501.921 62.776 500.481 65.512C499.089 68.248 498.393 71.416 498.393 75.016V75.088C498.393 78.688 499.089 81.88 500.481 84.664C501.921 87.4 503.961 89.536 506.601 91.072C509.289 92.56 512.409 93.304 515.961 93.304H518.697Z" fill="#16201B"/>
<path d="M595.792 86L589.52 76.56L593.168 76.496L599.824 86H595.792ZM582.832 78.544V75.44H590.608C592.272 75.44 593.531 75.088 594.384 74.384C595.259 73.68 595.696 72.656 595.696 71.312V71.28C595.696 69.9147 595.259 68.88 594.384 68.176C593.531 67.4507 592.272 67.088 590.608 67.088H583.376L584.176 66.288V86H580.56V63.856H590.608C593.403 63.856 595.547 64.5174 597.04 65.84C598.533 67.1627 599.28 68.976 599.28 71.28V71.312C599.28 72.8054 598.949 74.096 598.288 75.184C597.627 76.2507 596.645 77.0827 595.344 77.68C594.043 78.256 592.464 78.544 590.608 78.544H582.832Z" fill="#74817A"/>
<path d="M628.234 63.856V67.184H615.722V73.328H627.018V76.656H615.722V82.672H628.234V86H612.106V63.856H628.234Z" fill="#74817A"/>
<path d="M655.973 69.776C655.397 68.7734 654.618 68.016 653.637 67.504C652.656 66.9707 651.44 66.704 649.989 66.704H648.677C647.12 66.704 645.914 66.96 645.061 67.472C644.229 67.984 643.813 68.688 643.813 69.584C643.813 70.224 644.026 70.7894 644.453 71.28C644.901 71.7494 645.68 72.1227 646.789 72.4C646.874 72.4214 646.949 72.4427 647.013 72.464C647.098 72.464 647.173 72.4747 647.237 72.496L653.029 73.616C654.394 73.9147 655.482 74.384 656.293 75.024C657.104 75.664 657.68 76.4214 658.021 77.296C658.362 78.1494 658.522 79.088 658.501 80.112C658.501 81.3707 658.149 82.48 657.445 83.44C656.762 84.3787 655.781 85.104 654.501 85.616C653.242 86.1067 651.76 86.352 650.053 86.352H648.709C646.384 86.352 644.421 85.9254 642.821 85.072C641.242 84.2187 640.09 82.9814 639.365 81.36L642.373 79.28C642.97 80.6454 643.792 81.6374 644.837 82.256C645.904 82.8747 647.216 83.184 648.773 83.184H650.117C651.653 83.184 652.837 82.9067 653.669 82.352C654.501 81.776 654.917 80.9974 654.917 80.016C654.917 79.4827 654.8 79.0134 654.565 78.608C654.33 78.1814 653.968 77.8187 653.477 77.52C653.008 77.2 652.389 76.9547 651.621 76.784L645.413 75.504C644.197 75.2054 643.194 74.7787 642.405 74.224C641.637 73.648 641.072 72.9867 640.709 72.24C640.368 71.472 640.197 70.6187 640.197 69.68C640.197 67.7387 640.954 66.224 642.469 65.136C644.005 64.048 646.117 63.504 648.805 63.504H650.117C652.037 63.504 653.68 63.8347 655.045 64.496C656.432 65.1574 657.488 66.0854 658.213 67.28L655.973 69.776Z" fill="#74817A"/>
<path d="M687.014 63.856V67.184H674.502V73.328H685.798V76.656H674.502V82.672H687.014V86H670.886V63.856H687.014Z" fill="#74817A"/>
<path d="M721.665 86H717.857L715.585 80.816H703.969L701.697 86H697.889L707.873 63.856H711.681L721.665 86ZM709.793 67.504L705.217 77.68H714.337L709.793 67.504Z" fill="#74817A"/>
<path d="M748.805 86L742.533 76.56L746.181 76.496L752.837 86H748.805ZM735.845 78.544V75.44H743.621C745.285 75.44 746.543 75.088 747.397 74.384C748.271 73.68 748.709 72.656 748.709 71.312V71.28C748.709 69.9147 748.271 68.88 747.397 68.176C746.543 67.4507 745.285 67.088 743.621 67.088H736.389L737.189 66.288V86H733.573V63.856H743.621C746.415 63.856 748.559 64.5174 750.053 65.84C751.546 67.1627 752.293 68.976 752.293 71.28V71.312C752.293 72.8054 751.962 74.096 751.301 75.184C750.639 76.2507 749.658 77.0827 748.357 77.68C747.055 78.256 745.477 78.544 743.621 78.544H735.845Z" fill="#74817A"/>
<path d="M782.111 68.752C781.599 68.304 781.044 67.9414 780.447 67.664C779.849 67.3867 779.209 67.184 778.527 67.056C777.865 66.9067 777.151 66.832 776.383 66.832H775.263C773.684 66.832 772.308 67.184 771.135 67.888C769.961 68.5707 769.055 69.52 768.415 70.736C767.775 71.952 767.455 73.3387 767.455 74.896V74.928C767.455 76.5067 767.775 77.904 768.415 79.12C769.055 80.336 769.961 81.296 771.135 82C772.308 82.6827 773.684 83.024 775.263 83.024H776.383C777.172 83.024 777.908 82.9494 778.591 82.8C779.273 82.6507 779.903 82.4374 780.479 82.16C781.055 81.8827 781.599 81.5307 782.111 81.104L784.095 83.792C783.433 84.3894 782.697 84.88 781.887 85.264C781.097 85.6267 780.244 85.8934 779.327 86.064C778.431 86.256 777.449 86.352 776.383 86.352H775.263C772.937 86.352 770.911 85.8827 769.183 84.944C767.476 83.984 766.153 82.64 765.215 80.912C764.297 79.184 763.839 77.1894 763.839 74.928V74.896C763.839 72.6347 764.297 70.6507 765.215 68.944C766.153 67.216 767.476 65.8827 769.183 64.944C770.911 63.984 772.937 63.504 775.263 63.504H776.383C777.407 63.504 778.367 63.5894 779.263 63.76C780.18 63.9307 781.044 64.208 781.855 64.592C782.665 64.976 783.412 65.4667 784.095 66.064L782.111 68.752Z" fill="#74817A"/>
<path d="M812.997 73.264V63.856H816.581V86H812.997V76.624H799.781V86H796.165V63.856H799.781V73.264H812.997Z" fill="#74817A"/>
<defs>
<clipPath id="clip0_472_191">
<rect width="145.9" height="150.69" fill="white"/>
</clipPath>
</defs>
</svg>
